<svg xmlns="http://www.w3.org/2000/svg" xmlns:xlink="http://www.w3.org/1999/xlink" version="1.1" x="0px" y="0px" viewBox="0 0 100 125" enable-background="new 0 0 100 100" xml:space="preserve"><g><path d="M94.638,39.5h-3.247H56.346H43.932H20.601H8.609H5.362c-0.276,0-0.5,0.224-0.5,0.5v5.009c0,0.167,0.083,0.322,0.221,0.415   l3.026,2.036v7.586c0,3.007,2.166,5.454,4.828,5.454h25.958c3.053,0,5.537-2.447,5.537-5.454v-9.72   c2.024-0.232,2.322-1.816,2.527-3.009C47.185,41,47.362,40.5,48.334,40.5h0.013h3.583h0.013c0.972,0,1.149,0.5,1.375,1.816   c0.205,1.194,0.503,2.778,2.527,3.01v9.72c0,3.007,2.484,5.454,5.537,5.454h25.68c2.662,0,4.828-2.447,4.828-5.454V47.46   l3.026-2.036c0.138-0.093,0.221-0.249,0.221-0.415V40C95.138,39.724,94.915,39.5,94.638,39.5z M20.101,42.834h-2.872   c-0.276,0-0.5,0.224-0.5,0.5v3.359H9.109V40.5h10.992V42.834z M20.101,43.834v2.859h-2.372v-2.859H20.101z M5.862,40.5h2.247v5.754   l-2.247-1.512V40.5z M43.432,55.046c0,2.456-2.035,4.454-4.537,4.454H12.937c-2.11,0-3.828-1.998-3.828-4.454v-7.353h8.121h3.372   c0.276,0,0.5-0.224,0.5-0.5v-3.859V40.5h22.331V55.046z M45.973,42.147c-0.215,1.254-0.411,2.026-1.542,2.19V40.5h2.031   C46.176,41.006,46.064,41.621,45.973,42.147z M54.304,42.147c-0.09-0.527-0.203-1.141-0.489-1.647h2.031v3.838   C54.716,44.174,54.52,43.402,54.304,42.147z M90.891,55.046c0,2.456-1.717,4.454-3.828,4.454h-25.68   c-2.502,0-4.537-1.998-4.537-4.454V40.5h34.045v6.693V55.046z M94.138,44.743l-2.247,1.512V40.5h2.247V44.743z"/><path d="M33.367,43.616c-0.197-0.194-0.514-0.191-0.707,0.006c-0.194,0.197-0.191,0.513,0.006,0.707L39,50.559   c0.097,0.096,0.224,0.144,0.351,0.144c0.129,0,0.259-0.05,0.356-0.149c0.194-0.197,0.191-0.513-0.006-0.707L33.367,43.616z"/><path d="M26.5,43.616c-0.197-0.194-0.514-0.191-0.707,0.006c-0.194,0.197-0.191,0.513,0.006,0.707l11.75,11.558   c0.097,0.096,0.224,0.144,0.351,0.144c0.129,0,0.259-0.05,0.356-0.149c0.194-0.197,0.191-0.513-0.006-0.707L26.5,43.616z"/><path d="M82.389,43.644c-0.183-0.208-0.498-0.23-0.706-0.047c-0.208,0.182-0.229,0.498-0.047,0.706l5.442,6.23   c0.099,0.113,0.237,0.171,0.376,0.171c0.117,0,0.234-0.041,0.329-0.124c0.208-0.182,0.229-0.498,0.047-0.706L82.389,43.644z"/><path d="M76.49,43.644c-0.181-0.208-0.498-0.23-0.706-0.047c-0.208,0.182-0.229,0.498-0.047,0.706l10.095,11.558   c0.099,0.113,0.237,0.171,0.376,0.171c0.117,0,0.234-0.041,0.329-0.124c0.208-0.182,0.229-0.498,0.047-0.706L76.49,43.644z"/></g><text x="0" y="115" fill="#000000" font-size="5px" font-weight="bold" font-family="'Helvetica Neue', Helvetica, Arial-Unicode, Arial, Sans-serif">Created by Philip Glenn</text><text x="0" y="120" fill="#000000" font-size="5px" font-weight="bold" font-family="'Helvetica Neue', Helvetica, Arial-Unicode, Arial, Sans-serif">from the Noun Project</text></svg>